<svg width="1040" height="376" viewBox="0 0 1040 376" fill="none" xmlns="http://www.w3.org/2000/svg">
<g clip-path="url(#clip0_7_225)">
<path d="M313.002 208.904C340.006 208.904 361.893 187.017 361.893 160.013C361.893 133.008 340.006 111.176 313.002 111.176C285.997 111.176 264.219 133.117 264.219 160.013C264.219 186.908 286.106 208.904 313.002 208.904ZM313.002 62.2846C366.956 62.2846 410.784 106.167 410.784 160.067C410.784 213.967 366.956 257.849 313.002 257.849C259.047 257.849 215.274 214.022 215.274 160.067C215.274 106.112 259.102 62.2846 313.002 62.2846ZM97.728 208.904C124.732 208.904 146.619 187.017 146.619 160.013C146.619 133.008 124.678 111.176 97.728 111.176C70.7779 111.176 48.8912 133.117 48.8912 160.013C48.8912 186.908 70.8324 208.904 97.728 208.904ZM97.728 62.2846C151.628 62.2846 195.51 106.167 195.51 160.067V277.831C195.51 331.676 151.628 375.504 97.728 375.504C43.8279 375.504 0 331.622 0 277.831H48.8912C48.8912 304.726 70.8324 326.667 97.728 326.667C124.624 326.667 146.619 304.726 146.619 277.831V244.619C132.191 252.949 115.531 257.849 97.728 257.849C43.8823 257.795 0 214.022 0 160.067C0 106.112 43.8823 62.2846 97.728 62.2846ZM528.276 208.904C555.28 208.904 577.221 187.017 577.221 160.013C577.221 133.008 555.226 111.176 528.276 111.176C501.326 111.176 479.548 133.117 479.548 160.013C479.548 186.908 501.38 208.904 528.276 208.904ZM528.276 62.2846C582.23 62.2846 626.058 106.167 626.058 160.067C626.058 213.967 582.23 257.849 528.276 257.849C474.321 257.849 430.602 214.022 430.602 160.067C430.602 106.112 474.484 62.2846 528.276 62.2846ZM968.787 49.3268C914.941 49.3268 871.004 93.1002 871.004 147V252.242H919.95V147C919.95 120.05 941.891 98.1635 968.787 98.1635C982.452 98.1635 995.083 103.554 1004.39 113.571L1039.95 80.0335C1021.54 60.4335 995.628 49.2723 968.732 49.2723M743.549 208.904C770.499 208.904 792.441 187.017 792.441 160.013C792.441 133.008 770.499 111.176 743.549 111.176C716.599 111.176 694.713 133.117 694.713 160.013C694.713 186.908 716.708 208.904 743.549 208.904ZM792.441 0H841.277V160.067C841.277 214.022 797.45 257.849 743.549 257.849C689.649 257.849 645.876 214.022 645.876 160.067C645.876 106.112 689.649 62.2846 743.549 62.2846C761.353 62.2846 778.067 67.239 792.441 75.5146V0Z" fill="white"/>
</g>
<defs>
<clipPath id="clip0_7_225">
<rect width="1040" height="375.504" fill="white"/>
</clipPath>
</defs>
</svg>
